<svg width="1280" height="803" viewBox="0 0 1280 803" fill="none" xmlns="http://www.w3.org/2000/svg">
<g clip-path="url(#clip0)">
<g clip-path="url(#clip1)">
<path d="M658 142H138V662H658V142Z" fill="#FA9269"/>
<path d="M307.541 552.514C311.727 549.93 313.032 544.438 310.453 540.242L304.364 530.336L303.448 528.849C302.83 527.84 302.372 526.452 302.029 524.975C301.992 524.814 301.956 524.647 301.92 524.481C301.852 524.148 301.79 523.815 301.727 523.482C301.493 522.146 301.342 520.82 301.244 519.712C301.098 518.043 301.072 516.863 301.072 516.863H301.067C301.909 508.647 300.973 500.212 298.108 492.158C297.208 491.492 296.579 490.442 296.543 489.001C296.491 487.108 296.116 485.247 295.56 483.422C293.204 480.369 290.901 477.286 288.712 474.114L288.01 474.545C281.707 467.047 273.73 461.514 264.984 458.16V458.155C264.958 458.15 264.937 458.139 264.911 458.134C264.485 457.968 264.048 457.806 263.616 457.656C260.205 456.246 257.309 453.792 255.359 450.625L248.354 439.227C246.274 435.842 242.302 434.334 238.641 435.228C237.757 435.441 236.894 435.795 236.077 436.299L235.729 435.727L138 276.758V398.552L181.737 469.699C177.536 472.283 176.225 477.78 178.81 481.981L185.814 493.38C188.014 496.957 188.19 505.36 188.19 505.36V505.366C186.963 517.331 189.516 529.785 196.302 540.824C203.088 551.864 213.046 559.758 224.278 564.068C224.304 564.079 224.325 564.084 224.346 564.094C224.778 564.256 225.209 564.417 225.646 564.573C226.644 564.984 227.601 565.483 228.501 566.07C229.156 566.492 229.775 566.96 230.368 567.464C230.565 567.631 230.758 567.802 230.945 567.979C231.699 568.686 232.396 569.466 233.02 570.303C233.332 570.719 233.623 571.151 233.898 571.603L234.819 573.09L240.908 582.997C243.487 587.198 248.984 588.509 253.185 585.929L249.488 579.908L299.949 662H375.245L307.541 552.514ZM192.891 487.842L185.029 475.055C186.532 477.504 189.735 478.268 192.179 476.76L197.275 473.63L214.794 462.861C204.784 469.049 197.368 477.852 192.891 487.842ZM215.038 462.71L232.567 451.936L237.663 448.805C240.092 447.313 240.861 444.146 239.4 441.702L247.226 454.437C236.285 453.922 225.084 456.569 215.038 462.71ZM303.714 546.337C303.584 546.144 303.448 545.967 303.298 545.801C303.282 545.785 303.272 545.764 303.256 545.749C302.96 545.432 302.622 545.166 302.258 544.958C302.086 544.86 301.909 544.776 301.727 544.704C301.41 544.574 301.082 544.48 300.744 544.428C300.583 544.407 300.427 544.386 300.261 544.381C299.424 544.345 298.566 544.548 297.801 545.021L250.882 573.865C248.843 575.118 248.198 577.776 249.431 579.819L245.77 573.86L242.036 567.787C253.019 568.301 264.266 565.634 274.339 559.44C284.416 553.247 291.873 544.418 296.371 534.382L303.792 546.451C303.766 546.409 303.74 546.373 303.714 546.337Z" fill="#744C3A"/>
<path d="M658 442.019V662H138V599.766L313.276 494.586C313.687 494.341 314.098 494.097 314.509 493.858C320.697 490.265 327.244 487.384 334.03 485.252C338.548 483.827 343.176 482.735 347.872 481.986C348.023 481.96 348.174 481.939 348.33 481.919C350.935 481.513 353.556 481.222 356.197 481.035C356.249 481.029 356.296 481.024 356.348 481.024C356.358 481.019 356.374 481.019 356.384 481.019C360.997 473.646 366.561 466.958 372.915 461.119C377.725 456.688 382.998 452.747 388.64 449.361L570.666 340.125L573.178 338.617C575.928 336.963 578.924 336.069 581.919 335.871C581.919 335.871 581.919 335.871 581.924 335.871C588.996 335.409 596.073 338.82 599.968 345.315L658 442.019Z" fill="#744C3A"/>
<path d="M658 448.124V662H138V599.766L313.276 494.586L313.63 494.373C313.921 494.196 314.218 494.024 314.509 493.858C320.728 490.213 327.327 487.301 334.17 485.163C338.642 483.765 343.223 482.704 347.872 481.986C348.023 481.96 348.174 481.939 348.33 481.919C350.94 481.523 353.571 481.243 356.218 481.066C356.254 481.061 356.291 481.055 356.327 481.055C356.332 481.045 356.338 481.035 356.348 481.024C360.877 473.703 366.358 467.073 372.624 461.296C377.377 456.902 382.582 452.996 388.162 449.647L388.64 449.362L570.666 340.125C575.284 337.359 580.598 336.761 585.45 338.04C590.213 339.293 594.524 342.351 597.274 346.932L658 448.124Z" fill="#D4E2FC"/>
<path d="M464.799 662H138V592.372L310.848 488.648C323.609 480.993 337.997 476.464 352.838 475.434L356.197 481.035L356.218 481.066L464.799 662Z" fill="white"/>
<path d="M307.541 552.514C311.727 549.93 313.032 544.438 310.453 540.242L304.364 530.336L303.448 528.849C302.83 527.84 302.372 526.452 302.029 524.975C301.992 524.814 301.956 524.647 301.92 524.481C301.852 524.148 301.79 523.815 301.727 523.482C301.493 522.146 301.342 520.82 301.244 519.712C301.098 518.043 301.072 516.863 301.072 516.863H301.067C301.795 509.786 301.197 502.547 299.19 495.527L205.21 551.926C210.764 557.298 217.274 561.38 224.278 564.068C224.304 564.079 224.325 564.084 224.346 564.094C224.778 564.255 225.209 564.417 225.646 564.573C226.644 564.984 227.601 565.483 228.501 566.07C229.156 566.492 229.775 566.96 230.368 567.464C230.565 567.63 230.758 567.802 230.945 567.979C231.699 568.686 232.396 569.466 233.02 570.303C233.332 570.719 233.623 571.151 233.898 571.603L234.819 573.09L240.908 582.996C243.487 587.198 248.984 588.508 253.185 585.929L299.949 662H375.245L307.541 552.514Z" fill="#D4E2FC"/>
<path d="M658 456.449V662H464.794L352.838 475.434C353.16 474.92 353.488 474.405 353.821 473.9C354.148 473.391 354.486 472.886 354.829 472.387C355.162 471.893 355.505 471.399 355.849 470.916C355.864 470.9 355.869 470.884 355.88 470.874C359.702 465.476 364.08 460.516 368.937 456.054C373.622 451.738 378.755 447.895 384.251 444.598L563.984 336.745C569.647 333.344 576.365 333.24 581.919 335.872C581.919 335.872 581.919 335.872 581.924 335.872C583.167 336.459 584.347 337.182 585.449 338.04C587.254 339.439 588.829 341.191 590.077 343.266L658 456.449Z" fill="white"/>
<path d="M480.43 662H464.794L352.838 475.434C353.16 474.92 353.488 474.405 353.821 473.9C354.148 473.391 354.486 472.886 354.829 472.387C355.162 471.893 355.505 471.399 355.849 470.916C355.864 470.9 355.869 470.884 355.88 470.874C357.632 468.409 359.499 466.038 361.47 463.76L480.43 662Z" fill="#D4E2FC"/>
<path d="M465.839 662H463.738L352.063 475.897L353.607 474.972L465.839 662Z" fill="#A0BFF8"/>
<path d="M513.87 409.662L438.424 454.953L439.35 456.496L514.796 411.205L513.87 409.662Z" fill="#D4E2FC"/>
<path d="M570.302 389.469L445.772 464.225L446.698 465.767L571.228 391.012L570.302 389.469Z" fill="#D4E2FC"/>
<path d="M619.304 473.195L494.774 547.951L495.7 549.493L620.23 474.738L619.304 473.195Z" fill="#D4E2FC"/>
<path d="M605.61 493.544L500.127 556.866L501.053 558.408L606.537 495.086L605.61 493.544Z" fill="#D4E2FC"/>
<path d="M559.286 442.793L519.712 466.549L520.638 468.092L560.212 444.336L559.286 442.793Z" fill="#A0BFF8"/>
<path d="M568.194 449.579L511.397 483.674L512.323 485.216L569.12 451.121L568.194 449.579Z" fill="#A0BFF8"/>
<path d="M557.811 467.941L522.464 489.16L523.39 490.703L558.737 469.484L557.811 467.941Z" fill="#A0BFF8"/>
<path d="M594.487 550.278L521.912 593.845L522.838 595.387L595.413 551.82L594.487 550.278Z" fill="#D4E2FC"/>
<path d="M651.791 528.007L527.261 602.763L528.187 604.305L652.717 529.55L651.791 528.007Z" fill="#D4E2FC"/>
<path d="M629.013 595.779L550.785 642.74L551.711 644.283L629.939 597.322L629.013 595.779Z" fill="#D4E2FC"/>
<path d="M658 602.652V604.753L562.611 662H562.315L561.462 660.585L658 602.652Z" fill="#D4E2FC"/>
<path d="M591.901 403.118L409.287 512.686L410.191 514.193L592.805 404.625L591.901 403.118Z" fill="#D4E2FC"/>
<path d="M620.428 450.657L437.814 560.225L438.719 561.732L621.333 452.164L620.428 450.657Z" fill="#D4E2FC"/>
<path d="M648.957 498.195L466.343 607.763L467.247 609.27L649.861 499.702L648.957 498.195Z" fill="#D4E2FC"/>
<path d="M658 557.417V559.466L495.776 656.815L494.871 655.307L658 557.417Z" fill="#D4E2FC"/>
<path d="M658 622.069V624.123L594.883 662H591.461L658 622.069Z" fill="#D4E2FC"/>
<path d="M421.655 450.589L548.524 662H546.418L420.11 451.519L421.655 450.589Z" fill="#D4E2FC"/>
<path d="M353.723 546.002L171.13 655.613L172.056 657.156L354.649 547.545L353.723 546.002Z" fill="#D4E2FC"/>
<path d="M383.164 595.102L271.692 662H268.192L382.239 593.557L383.164 595.102Z" fill="#D4E2FC"/>
<path d="M411.692 642.64L379.431 662H375.932L410.766 641.096L411.692 642.64Z" fill="#D4E2FC"/>
<path d="M183.479 593.521L224.575 662H222.474L181.935 594.447L183.479 593.521Z" fill="#D4E2FC"/>
<path d="M302.413 469.356C302.533 468.966 302.481 468.544 302.268 468.201L297.364 460.224C297.151 459.876 296.797 459.642 296.397 459.574L295.009 459.34L294.972 459.283C294.478 458.482 293.433 458.233 292.632 458.727L287.151 462.096L295.986 476.469L301.467 473.1C302.268 472.606 302.517 471.56 302.023 470.76L301.987 470.702L302.413 469.356Z" fill="white"/>
<path d="M238.927 435.051L238.641 435.228L233.831 438.182L198.538 459.876C198.523 459.886 198.512 459.892 198.497 459.902L193.442 463.006C190.998 464.509 187.795 463.75 186.292 461.301L138 382.744V260.945L240.632 427.896C242.135 430.345 241.371 433.548 238.927 435.051Z" fill="#3D281E"/>
<path d="M235.729 435.727C235.427 436.715 234.777 437.599 233.831 438.182L198.538 459.876C198.523 459.886 198.512 459.892 198.497 459.902C196.438 461.134 193.76 460.484 192.501 458.436L138 369.776V273.908L235.271 432.144C235.958 433.262 236.082 434.562 235.729 435.727Z" fill="#744C3A"/>
<path d="M211.278 501.944L183.001 455.945C178.799 458.529 177.489 464.026 180.073 468.222L187.077 479.62C189.277 483.203 189.454 491.606 189.454 491.606L211.278 501.944Z" fill="white"/>
<path d="M189.454 491.606L211.278 501.939L190.619 468.331C188.908 471.597 187.494 475.003 186.391 478.497L187.083 479.62C189.277 483.203 189.454 491.606 189.454 491.606Z" fill="#A0BFF8"/>
<path d="M265.613 468.539L237.335 422.54C241.537 419.956 247.033 421.271 249.613 425.468L256.617 436.866C258.817 440.449 262.233 443.122 266.237 444.396L265.613 468.539Z" fill="white"/>
<path d="M280.511 492.771L308.789 538.77C312.99 536.186 314.301 530.69 311.716 526.493L304.712 515.095C302.512 511.512 302.336 503.109 302.336 503.109L280.511 492.771Z" fill="white"/>
<path d="M226.176 526.176L254.454 572.175C250.252 574.76 244.756 573.444 242.177 569.248L235.172 557.849C232.973 554.266 229.556 551.594 225.552 550.32L226.176 526.176Z" fill="white"/>
<path d="M225.542 550.314C229.546 551.594 232.962 554.266 235.162 557.844L236.077 559.336C239.686 559.908 243.352 560.168 247.028 560.106L226.171 526.176L225.542 550.314Z" fill="#A0BFF8"/>
<path d="M385.015 662H309.668L250.715 566.102C249.457 564.053 250.096 561.37 252.145 560.111L299.065 531.267C301.113 530.008 303.797 530.648 305.055 532.697L385.015 662Z" fill="#3D281E"/>
<path d="M245.895 554.09C277.227 554.09 302.627 528.69 302.627 497.358C302.627 466.026 277.227 440.626 245.895 440.626C214.562 440.626 189.163 466.026 189.163 497.358C189.163 528.69 214.562 554.09 245.895 554.09Z" fill="white"/>
<path d="M245.895 554.09C277.227 554.09 302.627 528.69 302.627 497.358C302.627 466.026 277.227 440.626 245.895 440.626C214.562 440.626 189.163 466.026 189.163 497.358C189.163 528.69 214.562 554.09 245.895 554.09Z" fill="white"/>
<path d="M245.895 549.919C274.924 549.919 298.456 526.386 298.456 497.357C298.456 468.329 274.924 444.796 245.895 444.796C216.866 444.796 193.333 468.329 193.333 497.357C193.333 526.386 216.866 549.919 245.895 549.919Z" fill="#D4E2FC"/>
<path d="M245.895 546.763C273.181 546.763 295.3 524.643 295.3 497.358C295.3 470.072 273.181 447.952 245.895 447.952C218.609 447.952 196.49 470.072 196.49 497.358C196.49 524.643 218.609 546.763 245.895 546.763Z" fill="black"/>
<path d="M245.895 546.763C273.181 546.763 295.3 524.643 295.3 497.358C295.3 470.072 273.181 447.952 245.895 447.952C218.609 447.952 196.49 470.072 196.49 497.358C196.49 524.643 218.609 546.763 245.895 546.763Z" fill="black"/>
<path d="M376.42 662H317.509L256.243 562.129C255.125 560.309 255.692 557.927 257.512 556.809L293.698 534.564C295.518 533.446 297.895 534.018 299.013 535.833L376.42 662Z" fill="#744C3A"/>
<path d="M293.698 534.563L257.512 556.809C255.692 557.927 255.125 560.309 256.243 562.123L258.676 566.086C292.43 544.724 295.347 533.549 293.698 534.563Z" fill="#3D281E"/>
<path d="M234.294 437.953L198.096 460.183C196.276 461.301 193.9 460.729 192.782 458.914L190.562 455.295C214.502 439.664 235.942 436.939 234.294 437.953Z" fill="#3D281E"/>
<path d="M223.45 458.246L221.133 459.67L226.827 468.933L229.144 467.509L223.45 458.246Z" fill="#A26147"/>
<path d="M206.904 474.703L205.61 477.095L215.173 482.269L216.467 479.877L206.904 474.703Z" fill="#A26147"/>
<path d="M200.796 497.238L200.871 499.957L211.74 499.657L211.665 496.938L200.796 497.238Z" fill="#A26147"/>
<path d="M206.784 519.804L208.208 522.121L217.471 516.426L216.047 514.11L206.784 519.804Z" fill="#A26147"/>
<path d="M223.238 536.347L225.63 537.642L230.804 528.079L228.413 526.784L223.238 536.347Z" fill="#A26147"/>
<path d="M245.772 542.457L248.491 542.382L248.191 531.514L245.472 531.589L245.772 542.457Z" fill="#A26147"/>
<path d="M268.339 536.467L270.656 535.043L264.962 525.78L262.645 527.204L268.339 536.467Z" fill="#A26147"/>
<path d="M284.886 520.015L286.18 517.623L276.617 512.448L275.323 514.84L284.886 520.015Z" fill="#A26147"/>
<path d="M290.997 497.479L290.922 494.761L280.054 495.061L280.129 497.779L290.997 497.479Z" fill="#A26147"/>
<path d="M285.006 474.915L283.582 472.598L274.319 478.292L275.743 480.609L285.006 474.915Z" fill="#A26147"/>
<path d="M268.55 458.366L266.158 457.072L260.984 466.635L263.376 467.929L268.55 458.366Z" fill="#A26147"/>
<path d="M246.013 452.261L243.294 452.336L243.595 463.205L246.313 463.13L246.013 452.261Z" fill="#A26147"/>
<path d="M247.278 495.912L245.895 497.358L244.512 498.808L218.974 474.275L218.907 471.446L221.736 471.378L247.278 495.912Z" fill="white"/>
<path d="M275.669 496.122L238.58 496.882L238.605 498.119L275.695 497.359L275.669 496.122Z" fill="#FA9269"/>
<path d="M268.822 501.216C271.217 501.216 273.158 499.274 273.158 496.879C273.158 494.484 271.217 492.542 268.822 492.542C266.427 492.542 264.485 494.484 264.485 496.879C264.485 499.274 266.427 501.216 268.822 501.216Z" fill="#FA9269"/>
<path d="M310.38 605.019C311.908 605.019 313.147 603.78 313.147 602.252C313.147 600.724 311.908 599.486 310.38 599.486C308.852 599.486 307.614 600.724 307.614 602.252C307.614 603.78 308.852 605.019 310.38 605.019Z" fill="#3D281E"/>
<path d="M323.864 626.957C325.391 626.957 326.63 625.718 326.63 624.191C326.63 622.663 325.391 621.424 323.864 621.424C322.336 621.424 321.097 622.663 321.097 624.191C321.097 625.718 322.336 626.957 323.864 626.957Z" fill="#3D281E"/>
<path d="M337.347 648.891C338.875 648.891 340.113 647.652 340.113 646.124C340.113 644.596 338.875 643.358 337.347 643.358C335.819 643.358 334.581 644.596 334.581 646.124C334.581 647.652 335.819 648.891 337.347 648.891Z" fill="#3D281E"/>
<path d="M229.042 512.303L231.865 512.464L244.912 500.935C246.794 501.45 248.77 500.41 249.384 498.538C250.018 496.604 248.968 494.524 247.039 493.889C245.104 493.255 243.024 494.305 242.39 496.234C242.203 496.806 242.166 497.389 242.25 497.945L229.198 509.474L229.042 512.303Z" fill="white"/>
<path d="M245.889 498.637C246.582 498.637 247.143 498.076 247.143 497.384C247.143 496.691 246.582 496.13 245.889 496.13C245.197 496.13 244.636 496.691 244.636 497.384C244.636 498.076 245.197 498.637 245.889 498.637Z" fill="black"/>
<path d="M577.202 455.789C575.585 466.641 571.524 477.088 565.934 486.5C560.521 495.615 553.568 504.008 545.124 510.461C541.354 513.342 537.251 515.838 532.846 517.632C531.822 518.048 530.787 518.428 529.732 518.755C529.487 518.833 529.243 518.906 528.993 518.979C533.788 517.57 532.586 518.048 531.588 518.277C531.468 518.303 531.349 518.334 531.234 518.36C530.699 518.48 530.158 518.589 529.617 518.683C527.709 519.01 525.764 519.161 523.824 519.083C520.372 518.948 516.96 518.059 513.96 516.332C510.98 514.621 508.505 512.141 506.649 509.265C501.964 502.006 501.106 492.823 501.86 484.409C502.827 473.547 506.462 462.959 511.61 453.391C516.674 443.969 523.341 435.259 531.489 428.296C535.166 425.155 539.17 422.374 543.501 420.216C545.576 419.181 547.729 418.291 549.944 417.61C550.053 417.579 550.157 417.543 550.266 417.511C550.298 417.501 550.329 417.491 550.36 417.486C550.984 417.309 550.573 417.418 549.122 417.813C548.654 417.938 548.192 418.063 547.724 418.187C547.802 418.167 547.885 418.146 547.968 418.13C548.072 418.104 548.176 418.083 548.28 418.057C548.842 417.933 549.408 417.818 549.975 417.725C550.942 417.563 551.915 417.444 552.892 417.376C556.46 417.137 560.084 417.61 563.386 419.009C566.511 420.335 569.241 422.457 571.373 425.093C576.594 431.546 578.092 440.287 577.868 448.379C577.795 450.849 577.561 453.329 577.202 455.789C577.218 455.669 579.267 455.258 579.47 455.206C580 455.066 580.536 454.92 581.066 454.769C581.144 454.749 581.716 454.629 581.721 454.577C583.026 445.654 582.792 435.836 578.43 427.719C576.745 424.578 574.405 421.781 571.462 419.747C568.555 417.74 565.154 416.57 561.649 416.217C556.652 415.717 551.878 416.976 547.11 418.312C542.498 419.602 538.166 421.599 534.131 424.167C525.083 429.934 517.595 438.067 511.672 446.949C505.427 456.314 500.731 466.87 498.469 477.92C496.582 487.139 496.186 497.326 499.878 506.171C501.288 509.546 503.336 512.682 506.082 515.121C508.687 517.435 511.859 519.026 515.255 519.775C519.056 520.612 523.013 520.399 526.794 519.551C532.202 518.345 537.469 516.712 542.336 514.034C551.556 508.964 559.257 501.294 565.44 492.859C572.132 483.733 577.27 473.344 580.12 462.382C580.79 459.808 581.326 457.203 581.716 454.572C581.7 454.691 579.657 455.102 579.449 455.154C578.918 455.295 578.383 455.44 577.852 455.591C577.78 455.617 577.213 455.731 577.202 455.789Z" fill="#FA9269"/>
<path d="M519.706 221.404V221.721C519.706 222.48 519.701 223.24 519.685 223.999C519.68 224.43 519.675 224.862 519.664 225.294C519.654 225.725 519.638 226.157 519.623 226.588C519.597 227.348 519.566 228.107 519.524 228.866C519.519 228.97 519.513 229.074 519.508 229.178C518.567 246.64 514.137 264.065 506.025 280.372C499.707 293.138 491.257 304.968 480.82 315.295C480.633 315.488 480.441 315.675 480.248 315.862C479.78 316.32 479.307 316.772 478.834 317.224C478.361 317.677 477.882 318.124 477.404 318.566C477.206 318.748 477.009 318.93 476.806 319.112C465.969 329.008 453.728 336.844 440.666 342.507C423.964 349.787 406.33 353.328 388.838 353.385H388.526C387.766 353.39 387.007 353.38 386.248 353.37C385.816 353.364 385.385 353.354 384.953 353.344C384.522 353.333 384.09 353.318 383.653 353.302C382.899 353.276 382.14 353.245 381.386 353.208C381.277 353.203 381.173 353.193 381.064 353.188C363.607 352.246 346.182 347.821 329.88 339.709C317.114 333.391 305.279 324.941 294.946 314.505L294.385 313.928C293.927 313.46 293.47 312.992 293.022 312.513C293.012 312.508 293.002 312.498 292.991 312.487L292.939 312.43C292.513 311.983 292.097 311.536 291.681 311.088C291.499 310.886 291.317 310.688 291.135 310.49C291.13 310.485 291.13 310.485 291.13 310.485C288.072 307.693 283.787 306.752 279.903 307.927C278.915 308.223 277.948 308.66 277.038 309.237L232.177 337.598C228.095 340.177 222.687 338.96 220.108 334.878L214.159 325.466C211.575 321.384 212.792 315.976 216.879 313.397L255.026 289.274L261.687 285.068C262.878 284.308 263.897 283.367 264.719 282.296C265.124 281.76 265.488 281.194 265.795 280.601C266.258 279.712 266.606 278.77 266.825 277.793C267.017 276.945 267.121 276.072 267.121 275.193C267.121 273.721 266.846 272.239 266.263 270.809C259.982 255.168 256.914 238.782 256.862 222.522C256.862 222.418 256.856 222.314 256.856 222.205C256.856 221.446 256.867 220.686 256.877 219.927C256.882 219.496 256.893 219.064 256.903 218.632C256.914 218.201 256.929 217.769 256.945 217.338C256.971 216.578 257.002 215.819 257.038 215.06C257.044 214.956 257.049 214.857 257.059 214.753C258 197.286 262.431 179.851 270.548 163.544C274.282 155.998 278.764 148.776 283.959 142H492.598C499.187 150.585 504.616 159.867 508.838 169.607C516.108 186.299 519.649 203.922 519.706 221.404Z" fill="#744C3A"/>
<path d="M658 142V184.864L318.383 393.638L163.693 142H658Z" fill="#744C3A"/>
<path d="M658 142V184.624L321.695 391.366L168.399 142H658Z" fill="white"/>
<path d="M519.706 221.404V221.721C519.706 222.48 519.701 223.24 519.685 223.999C519.68 224.43 519.675 224.862 519.664 225.294C519.654 225.725 519.638 226.157 519.623 226.588C519.597 227.348 519.566 228.107 519.524 228.866C519.519 228.97 519.514 229.074 519.508 229.178C518.63 245.47 514.714 261.73 507.6 277.086L383.617 353.302C382.873 353.276 382.13 353.245 381.386 353.208C381.277 353.203 381.173 353.193 381.064 353.188C363.607 352.246 346.182 347.821 329.88 339.709C317.114 333.391 305.279 324.941 294.946 314.505L294.385 313.928C293.927 313.46 293.47 312.992 293.022 312.513C293.012 312.508 293.002 312.498 292.991 312.487L292.939 312.43C292.513 311.983 292.097 311.536 291.681 311.088C291.499 310.886 291.317 310.688 291.135 310.49C291.13 310.485 291.13 310.485 291.13 310.485C288.072 307.693 283.787 306.752 279.903 307.927C278.915 308.223 277.948 308.66 277.038 309.237L272.841 311.889L257.844 287.496L261.687 285.068C262.878 284.308 263.897 283.367 264.719 282.296C265.124 281.76 265.488 281.194 265.795 280.601C266.258 279.712 266.606 278.77 266.825 277.793C267.017 276.945 267.121 276.072 267.121 275.193C267.121 273.721 266.846 272.239 266.263 270.809C259.982 255.168 256.914 238.782 256.862 222.522C256.862 222.418 256.856 222.314 256.856 222.205C256.856 221.446 256.867 220.686 256.877 219.927C256.882 219.496 256.893 219.064 256.903 218.632C256.914 218.201 256.929 217.769 256.945 217.338C256.971 216.578 257.002 215.819 257.038 215.06C257.044 214.956 257.049 214.857 257.059 214.753C258 197.286 262.431 179.851 270.548 163.544C274.282 155.998 278.764 148.776 283.959 142H492.598C499.187 150.585 504.616 159.867 508.838 169.607C516.108 186.299 519.649 203.922 519.706 221.404Z" fill="#D4E2FC"/>
<path d="M323.474 376.073L322.584 374.622L328.908 370.732L329.797 372.183L323.474 376.073ZM336.125 368.294L335.236 366.843L341.559 362.953L342.448 364.404L336.125 368.294ZM348.777 360.52L347.888 359.069L354.211 355.179L355.1 356.63L348.777 360.52ZM361.428 352.74L360.539 351.29L366.862 347.4L367.752 348.851L361.428 352.74ZM374.075 344.966L373.186 343.516L379.509 339.626L380.398 341.077L374.075 344.966ZM386.726 337.187L385.837 335.736L392.16 331.847L393.05 333.298L386.726 337.187ZM399.378 329.413L398.489 327.962L404.812 324.073L405.701 325.524L399.378 329.413ZM412.03 321.634L411.14 320.183L417.464 316.294L418.353 317.744L412.03 321.634ZM424.681 313.86L423.792 312.409L430.115 308.52L431.004 309.97L424.681 313.86ZM437.328 306.081L436.438 304.63L442.762 300.74L443.651 302.191L437.328 306.081ZM449.979 298.307L449.09 296.856L455.413 292.966L456.302 294.417L449.979 298.307ZM462.631 290.528L461.742 289.077L468.065 285.187L468.954 286.638L462.631 290.528ZM475.282 282.754L474.393 281.303L480.716 277.413L481.606 278.864L475.282 282.754ZM487.929 274.974L487.04 273.524L493.363 269.634L494.252 271.085L487.929 274.974ZM500.58 267.2L499.691 265.75L506.014 261.86L506.904 263.311L500.58 267.2ZM513.232 259.421L512.343 257.97L518.666 254.081L519.555 255.532L513.232 259.421ZM525.884 251.647L524.994 250.196L531.318 246.307L532.207 247.758L525.884 251.647ZM538.535 243.868L537.646 242.417L543.969 238.528L544.858 239.978L538.535 243.868ZM551.182 236.089L550.292 234.638L556.616 230.748L557.505 232.199L551.182 236.089ZM563.833 228.315L562.944 226.864L569.267 222.974L570.156 224.425L563.833 228.315ZM576.485 220.536L575.596 219.085L581.919 215.195L582.808 216.646L576.485 220.536ZM589.136 212.762L588.247 211.311L594.57 207.421L595.46 208.872L589.136 212.762ZM601.783 204.982L600.894 203.532L607.217 199.642L608.106 201.093L601.783 204.982ZM614.434 197.208L613.545 195.758L619.868 191.868L620.758 193.319L614.434 197.208ZM627.086 189.429L626.197 187.978L632.52 184.094L633.409 185.545L627.086 189.429ZM639.738 181.655L638.848 180.204L645.172 176.315L646.061 177.766L639.738 181.655ZM658 170.428L652.389 173.876L651.495 172.425L657.823 168.541L658 168.827V170.428Z" fill="#A0BFF8"/>
<path d="M308.675 351.997L307.786 350.546L314.109 346.657L314.998 348.107L308.675 351.997ZM321.326 344.223L320.437 342.772L326.76 338.883L327.65 340.333L321.326 344.223ZM333.978 336.444L333.089 334.993L339.412 331.103L340.301 332.554L333.978 336.444ZM346.63 328.665L345.74 327.214L352.064 323.324L352.953 324.775L346.63 328.665ZM359.276 320.891L358.387 319.44L364.71 315.55L365.599 317.001L359.276 320.891ZM371.928 313.111L371.038 311.661L377.362 307.771L378.251 309.222L371.928 313.111ZM384.579 305.337L383.69 303.887L390.013 299.997L390.902 301.448L384.579 305.337ZM397.231 297.558L396.342 296.107L402.665 292.218L403.554 293.669L397.231 297.558ZM409.882 289.784L408.993 288.333L415.316 284.444L416.206 285.895L409.882 289.784ZM422.529 282.005L421.64 280.554L427.963 276.665L428.852 278.115L422.529 282.005ZM435.18 274.231L434.291 272.78L440.614 268.891L441.504 270.341L435.18 274.231ZM447.832 266.452L446.943 265.001L453.266 261.111L454.155 262.562L447.832 266.452ZM460.484 258.678L459.594 257.227L465.918 253.337L466.807 254.788L460.484 258.678ZM473.13 250.899L472.241 249.448L478.564 245.558L479.453 247.009L473.13 250.899ZM485.782 243.125L484.892 241.674L491.216 237.784L492.105 239.235L485.782 243.125ZM498.433 235.345L497.544 233.895L503.867 230.005L504.756 231.456L498.433 235.345ZM511.085 227.571L510.196 226.121L516.519 222.231L517.408 223.682L511.085 227.571ZM523.731 219.792L522.842 218.341L529.165 214.452L530.054 215.903L523.731 219.792ZM536.383 212.018L535.494 210.567L541.817 206.678L542.706 208.129L536.383 212.018ZM549.034 204.239L548.145 202.788L554.468 198.899L555.358 200.349L549.034 204.239ZM561.686 196.465L560.797 195.014L567.12 191.125L568.009 192.575L561.686 196.465ZM574.338 188.686L573.448 187.235L579.772 183.345L580.661 184.796L574.338 188.686ZM586.984 180.912L586.095 179.461L592.418 175.571L593.307 177.022L586.984 180.912ZM599.636 173.133L598.746 171.682L605.07 167.792L605.959 169.243L599.636 173.133ZM612.287 165.359L611.398 163.908L617.721 160.018L618.61 161.469L612.287 165.359ZM624.939 157.579L624.05 156.129L630.373 152.239L631.262 153.69L624.939 157.579ZM637.59 149.8L636.701 148.349L643.024 144.46L643.914 145.911L637.59 149.8Z" fill="#A0BFF8"/>
<path d="M293.876 327.921L292.986 326.47L299.31 322.58L300.199 324.031L293.876 327.921ZM306.527 320.147L305.638 318.696L311.961 314.806L312.85 316.257L306.527 320.147ZM319.179 312.368L318.29 310.917L324.613 307.027L325.502 308.478L319.179 312.368ZM331.825 304.594L330.936 303.143L337.259 299.253L338.148 300.704L331.825 304.594ZM344.477 296.814L343.588 295.364L349.911 291.474L350.8 292.925L344.477 296.814ZM357.128 289.04L356.239 287.59L362.562 283.7L363.452 285.151L357.128 289.04ZM369.78 281.261L368.891 279.81L375.214 275.921L376.103 277.372L369.78 281.261ZM382.432 273.487L381.542 272.036L387.866 268.147L388.755 269.598L382.432 273.487ZM395.078 265.708L394.189 264.257L400.512 260.368L401.401 261.818L395.078 265.708ZM407.73 257.929L406.84 256.478L413.164 252.588L414.053 254.039L407.73 257.929ZM420.381 250.155L419.492 248.704L425.815 244.814L426.704 246.265L420.381 250.155ZM433.033 242.376L432.144 240.925L438.467 237.035L439.356 238.486L433.033 242.376ZM445.679 234.602L444.79 233.151L451.113 229.261L452.002 230.712L445.679 234.602ZM458.331 226.822L457.442 225.372L463.765 221.482L464.654 222.933L458.331 226.822ZM470.982 219.048L470.093 217.598L476.416 213.708L477.306 215.159L470.982 219.048ZM483.634 211.269L482.745 209.818L489.068 205.929L489.957 207.38L483.634 211.269ZM496.286 203.495L495.396 202.044L501.72 198.155L502.609 199.606L496.286 203.495ZM508.932 195.716L508.043 194.265L514.366 190.376L515.255 191.826L508.932 195.716ZM521.584 187.942L520.694 186.491L527.018 182.602L527.907 184.052L521.584 187.942ZM534.235 180.163L533.346 178.712L539.669 174.822L540.558 176.273L534.235 180.163ZM546.887 172.389L545.998 170.938L552.321 167.048L553.21 168.499L546.887 172.389ZM559.538 164.61L558.649 163.159L564.972 159.269L565.862 160.72L559.538 164.61ZM572.185 156.836L571.296 155.385L577.619 151.495L578.508 152.946L572.185 156.836ZM584.836 149.056L583.947 147.606L590.27 143.716L591.16 145.167L584.836 149.056Z" fill="#A0BFF8"/>
<path d="M279.076 303.845L278.187 302.394L284.51 298.504L285.399 299.955L279.076 303.845ZM291.728 296.071L290.839 294.62L297.162 290.73L298.051 292.181L291.728 296.071ZM304.379 288.292L303.49 286.841L309.813 282.951L310.703 284.402L304.379 288.292ZM317.026 280.518L316.137 279.067L322.46 275.177L323.349 276.628L317.026 280.518ZM329.677 272.738L328.788 271.288L335.111 267.398L336.001 268.849L329.677 272.738ZM342.329 264.964L341.44 263.514L347.763 259.624L348.652 261.075L342.329 264.964ZM354.981 257.185L354.091 255.734L360.415 251.845L361.304 253.296L354.981 257.185ZM367.627 249.411L366.738 247.96L373.061 244.071L373.95 245.522L367.627 249.411ZM380.279 241.632L379.389 240.181L385.713 236.292L386.602 237.742L380.279 241.632ZM392.93 233.858L392.041 232.407L398.364 228.518L399.253 229.968L392.93 233.858ZM405.582 226.079L404.693 224.628L411.016 220.738L411.905 222.189L405.582 226.079ZM418.233 218.305L417.344 216.854L423.667 212.964L424.557 214.415L418.233 218.305ZM430.88 210.526L429.991 209.075L436.314 205.185L437.203 206.636L430.88 210.526ZM443.531 202.752L442.642 201.301L448.965 197.411L449.855 198.862L443.531 202.752ZM456.183 194.972L455.294 193.522L461.617 189.632L462.506 191.083L456.183 194.972ZM468.835 187.198L467.945 185.748L474.269 181.858L475.158 183.309L468.835 187.198ZM481.486 179.419L480.597 177.968L486.92 174.079L487.809 175.53L481.486 179.419ZM494.133 171.645L493.243 170.194L499.567 166.305L500.456 167.756L494.133 171.645ZM506.784 163.866L505.895 162.415L512.218 158.526L513.107 159.976L506.784 163.866ZM519.436 156.087L518.547 154.636L524.87 150.746L525.759 152.197L519.436 156.087ZM532.087 148.313L531.198 146.862L537.521 142.972L538.411 144.423L532.087 148.313Z" fill="#A0BFF8"/>
<path d="M264.277 279.774L263.388 278.323L269.711 274.434L270.6 275.884L264.277 279.774ZM276.928 271.995L276.039 270.544L282.362 266.654L283.252 268.105L276.928 271.995ZM289.575 264.221L288.686 262.77L295.009 258.88L295.898 260.331L289.575 264.221ZM302.226 256.442L301.337 254.991L307.66 251.101L308.55 252.552L302.226 256.442ZM314.878 248.668L313.989 247.217L320.312 243.327L321.201 244.778L314.878 248.668ZM327.53 240.888L326.64 239.438L332.964 235.548L333.853 236.999L327.53 240.888ZM340.181 233.109L339.292 231.658L345.615 227.769L346.504 229.22L340.181 233.109ZM352.828 225.335L351.938 223.884L358.262 219.995L359.151 221.446L352.828 225.335ZM365.479 217.556L364.59 216.105L370.913 212.216L371.802 213.666L365.479 217.556ZM378.131 209.782L377.242 208.331L383.565 204.442L384.454 205.892L378.131 209.782ZM390.782 202.003L389.893 200.552L396.216 196.662L397.106 198.113L390.782 202.003ZM403.429 194.229L402.54 192.778L408.863 188.888L409.752 190.339L403.429 194.229ZM416.08 186.45L415.191 184.999L421.514 181.109L422.404 182.56L416.08 186.45ZM428.732 178.676L427.843 177.225L434.166 173.335L435.055 174.786L428.732 178.676ZM441.384 170.896L440.494 169.446L446.818 165.556L447.707 167.007L441.384 170.896ZM454.035 163.122L453.146 161.672L459.469 157.782L460.358 159.233L454.035 163.122ZM466.682 155.343L465.792 153.892L472.116 150.003L473.005 151.454L466.682 155.343ZM479.333 147.569L478.444 146.118L484.767 142.229L485.656 143.68L479.333 147.569Z" fill="#A0BFF8"/>
<path d="M249.478 255.698L248.589 254.247L254.912 250.358L255.801 251.808L249.478 255.698ZM262.13 247.919L261.24 246.468L267.564 242.578L268.453 244.029L262.13 247.919ZM274.776 240.145L273.887 238.694L280.21 234.804L281.099 236.255L274.776 240.145ZM287.428 232.366L286.538 230.915L292.862 227.025L293.751 228.476L287.428 232.366ZM300.079 224.592L299.19 223.141L305.513 219.251L306.402 220.702L300.079 224.592ZM312.731 216.812L311.842 215.362L318.165 211.472L319.054 212.923L312.731 216.812ZM325.377 209.038L324.488 207.588L330.811 203.698L331.7 205.149L325.377 209.038ZM338.029 201.259L337.14 199.808L343.463 195.919L344.352 197.37L338.029 201.259ZM350.68 193.485L349.791 192.034L356.114 188.145L357.004 189.596L350.68 193.485ZM363.332 185.706L362.443 184.255L368.766 180.366L369.655 181.816L363.332 185.706ZM375.984 177.932L375.094 176.481L381.418 172.592L382.307 174.042L375.984 177.932ZM388.63 170.153L387.741 168.702L394.064 164.812L394.953 166.263L388.63 170.153ZM401.282 162.374L400.392 160.923L406.716 157.033L407.605 158.484L401.282 162.374ZM413.933 154.6L413.044 153.149L419.367 149.259L420.256 150.71L413.933 154.6Z" fill="#A0BFF8"/>
<path d="M234.679 231.622L233.79 230.171L240.113 226.282L241.002 227.732L234.679 231.622ZM247.325 223.843L246.436 222.392L252.759 218.502L253.648 219.953L247.325 223.843ZM259.977 216.069L259.088 214.618L265.411 210.728L266.3 212.179L259.977 216.069ZM272.628 208.29L271.739 206.839L278.062 202.949L278.952 204.4L272.628 208.29ZM285.28 200.516L284.391 199.065L290.714 195.175L291.603 196.626L285.28 200.516ZM297.932 192.736L297.042 191.286L303.36 187.401L304.25 188.852L297.932 192.736ZM310.578 184.962L309.689 183.512L316.012 179.622L316.901 181.073L310.578 184.962ZM323.23 177.183L322.34 175.732L328.664 171.843L329.553 173.294L323.23 177.183ZM335.881 169.409L334.992 167.958L341.315 164.069L342.204 165.52L335.881 169.409ZM348.533 161.63L347.644 160.179L353.967 156.29L354.856 157.74L348.533 161.63ZM361.179 153.856L360.29 152.405L366.613 148.516L367.502 149.966L361.179 153.856Z" fill="#A0BFF8"/>
<path d="M219.879 207.546L218.99 206.095L225.313 202.206L226.203 203.656L219.879 207.546ZM232.526 199.772L231.637 198.321L237.96 194.432L238.849 195.882L232.526 199.772ZM245.177 191.993L244.288 190.542L250.611 186.652L251.501 188.103L245.177 191.993ZM257.829 184.219L256.94 182.768L263.263 178.878L264.152 180.329L257.829 184.219ZM270.481 176.44L269.591 174.989L275.915 171.099L276.804 172.55L270.481 176.44ZM283.127 168.66L282.238 167.21L288.561 163.32L289.45 164.771L283.127 168.66ZM295.779 160.886L294.889 159.436L301.213 155.546L302.102 156.997L295.779 160.886ZM308.43 153.107L307.541 151.656L313.864 147.767L314.753 149.218L308.43 153.107Z" fill="#A0BFF8"/>
<path d="M269.29 142L267.439 143.139L268.328 144.59L272.54 142H269.29ZM261.116 147.023L254.787 150.913L255.682 152.364L262.005 148.474L261.116 147.023ZM248.464 154.802L242.136 158.692L243.03 160.143L249.353 156.253L248.464 154.802ZM235.812 162.582L229.489 166.466L230.378 167.917L236.702 164.032L235.812 162.582ZM223.161 170.356L216.838 174.245L217.727 175.696L224.055 171.806L223.161 170.356ZM210.509 178.135L204.186 182.019L205.075 183.47L211.404 179.586L210.509 178.135Z" fill="#A0BFF8"/>
<path d="M190.276 159.394L189.387 157.943L195.71 154.054L196.599 155.504L190.276 159.394ZM202.928 151.62L202.038 150.169L208.362 146.28L209.251 147.73L202.928 151.62ZM215.319 142L214.685 142.39L215.579 143.841L218.574 142H215.319Z" fill="#A0BFF8"/>
<path d="M226.749 290.761L272.358 263.742C277.225 260.862 279.321 254.902 277.34 249.604L302.872 292.082L301.962 290.975C298.306 286.529 291.952 285.416 287.001 288.349L241.34 315.394C237.18 317.859 231.814 316.481 229.349 312.326L223.676 302.748C221.216 298.593 222.589 293.226 226.749 290.761Z" fill="white"/>
<path d="M301.961 290.98L302.871 292.088L277.339 249.609C279.326 254.908 277.225 260.862 272.358 263.748L271.11 264.486C273.299 269.546 275.831 274.522 278.712 279.384C280.766 282.847 282.955 286.175 285.264 289.378L287.001 288.349C291.951 285.416 298.306 286.534 301.961 290.98Z" fill="#A0BFF8"/>
<path d="M505.869 283.19C462.324 341.254 379.951 353.026 321.888 309.476C269.139 269.915 254.6 198.311 285.03 142H516.456C539.96 185.696 537.589 240.894 505.869 283.19Z" fill="white"/>
<path d="M467.712 317.412C405.265 354.399 324.655 333.766 287.667 271.319C263.315 230.208 263.939 181.224 285.031 142H516.42C549.752 203.745 528.619 281.334 467.712 317.412Z" fill="white"/>
<path d="M460.629 305.457C404.786 338.539 332.699 320.079 299.622 264.236C276.461 225.132 278.567 178.062 301.083 142H500.357C500.862 142.806 501.361 143.622 501.85 144.449C534.927 200.297 516.472 272.38 460.629 305.457Z" fill="#D2D7F0"/>
<path d="M460.629 305.457C404.786 338.539 332.699 320.079 299.622 264.236C276.461 225.132 278.567 178.062 301.083 142H500.357C500.862 142.806 501.361 143.622 501.85 144.449C534.927 200.297 516.472 272.38 460.629 305.457Z" fill="#D4E2FC"/>
<path d="M309.902 142C304.042 146.035 298.68 150.564 293.85 155.489C295.966 150.856 298.384 146.347 301.098 142H309.902Z" fill="#A0BFF8"/>
<path d="M460.629 305.457C457.291 307.438 453.89 309.227 450.442 310.839C485.631 275.848 493.81 220.151 467.046 175.758C458.715 161.942 447.837 150.611 435.373 142H500.357C500.861 142.806 501.361 143.622 501.849 144.449C534.927 200.297 516.472 272.38 460.629 305.457Z" fill="#A0BFF8"/>
<path d="M457.67 298.78C405.519 330.224 337.748 313.434 306.303 261.283C283.278 223.099 286.112 176.544 309.746 142H491.689C492.895 143.758 494.055 145.562 495.167 147.408C526.617 199.564 509.826 267.33 457.67 298.78Z" fill="#A26147"/>
<path d="M451.914 289.222C451.862 289.254 451.805 289.285 451.753 289.316C442.533 294.849 431.135 295.348 421.374 290.834L361.163 262.994C357.435 261.267 354.294 258.412 352.433 254.752C349.983 249.942 345.803 245.99 340.353 243.936C336.032 242.308 331.529 242.1 327.348 243.083C323.255 244.045 318.95 243.478 315.133 241.715C312.601 240.545 310.385 238.84 308.628 236.754C306.865 234.669 305.565 232.204 304.858 229.506C296.871 199.013 304 166.367 323.677 142H477.799C480.639 145.52 483.249 149.249 485.615 153.17C513.83 199.97 498.714 261.007 451.914 289.222Z" fill="#3D281E"/>
<path d="M463.843 294.766C469.932 286.004 474.669 276.456 477.976 266.457C503.259 234.955 507.653 189.72 485.615 153.17C485.319 152.681 485.022 152.192 484.716 151.708C484.497 151.36 484.279 151.012 484.055 150.668C483.66 150.055 483.26 149.446 482.849 148.843C482.641 148.531 482.433 148.219 482.209 147.907C482.027 147.632 481.835 147.356 481.637 147.086C481.523 146.924 481.408 146.763 481.294 146.602C481.096 146.321 480.894 146.04 480.691 145.765C480.426 145.401 480.16 145.037 479.885 144.678C479.557 144.236 479.224 143.799 478.881 143.368C478.855 143.331 478.829 143.3 478.803 143.269C478.476 142.842 478.143 142.426 477.81 142.01C477.805 142.005 477.805 142.005 477.8 142H491.689C492.895 143.758 494.055 145.562 495.168 147.408C525.338 197.442 511.106 261.85 463.843 294.766Z" fill="#5C3C2E"/>
<path d="M477.976 266.457C487.742 236.957 485.043 203.532 467.743 174.833C459.709 161.51 449.304 150.492 437.396 142H477.8C480.639 145.52 483.249 149.249 485.615 153.17C507.653 189.72 503.259 234.955 477.976 266.457Z" fill="black"/>
<path d="M342.55 265.352C344.421 260.38 341.911 254.834 336.944 252.964C331.977 251.095 326.434 253.611 324.562 258.583C322.691 263.556 325.201 269.102 330.168 270.971C335.135 272.84 340.678 270.325 342.55 265.352Z" fill="#3D281E"/>
<path d="M321.981 254.349C322.729 252.36 321.726 250.142 319.74 249.395C317.753 248.647 315.536 249.654 314.788 251.643C314.039 253.632 315.043 255.85 317.029 256.597C319.015 257.345 321.232 256.338 321.981 254.349Z" fill="#3D281E"/>
<path d="M345.516 275.821C345.965 274.628 345.361 273.297 344.168 272.847C342.975 272.398 341.643 273.002 341.194 274.195C340.745 275.389 341.348 276.72 342.542 277.169C343.735 277.618 345.067 277.015 345.516 275.821Z" fill="#3D281E"/>
<path d="M312.431 248.734C312.88 247.541 312.277 246.209 311.084 245.76C309.89 245.311 308.559 245.915 308.11 247.108C307.66 248.301 308.264 249.633 309.457 250.082C310.651 250.531 311.982 249.928 312.431 248.734Z" fill="#3D281E"/>
<path d="M337.905 281.02C338.654 279.031 337.65 276.812 335.664 276.065C333.678 275.317 331.461 276.324 330.712 278.313C329.964 280.302 330.967 282.52 332.953 283.267C334.94 284.015 337.157 283.009 337.905 281.02Z" fill="#3D281E"/>
<path d="M657.901 303.476L658 328.352L588.258 301.333L555.019 277.907C553.568 276.883 554.452 274.6 556.215 274.824L596.645 279.712L657.901 303.476Z" fill="#744C3A"/>
<path d="M598.32 273.134L590.021 294.521L658 320.859V296.253L598.32 273.134Z" fill="#A26147"/>
<path d="M566.958 278.271L590.02 294.521L598.408 272.9L570.333 269.582L566.958 278.271Z" fill="white"/>
<path d="M557.978 268.012C556.215 267.788 555.331 270.071 556.782 271.095L566.958 278.266L570.328 269.577L557.978 268.012Z" fill="black"/>
<path d="M590.021 294.521L592.054 289.285L658 315.155V320.896L590.021 294.521Z" fill="#3D281E"/>
<path d="M592.054 289.285L567.759 276.217L566.958 278.271L590.02 294.521L592.054 289.285Z" fill="#D4E2FC"/>
<path d="M165.414 644.731C164.166 642.62 164.738 640.41 166.85 639.162C168.961 637.914 171.15 638.481 172.403 640.602L173.734 642.854C174.988 644.981 174.431 647.18 172.32 648.428C170.209 649.676 167.999 649.104 166.746 646.978L165.414 644.731ZM170.781 641.616C170.016 640.316 168.862 639.932 167.702 640.618C166.543 641.304 166.309 642.506 167.073 643.8L168.358 645.979C169.122 647.279 170.297 647.669 171.457 646.983C172.616 646.296 172.835 645.106 172.065 643.795L170.781 641.616Z" fill="#FA9269"/>
<path d="M181.95 642.511L176.261 645.87L175.398 644.404L177.411 643.218L173.88 637.233L172.174 638.242L171.311 636.775L174.67 634.794L179.059 642.24L181.082 641.044L181.95 642.511Z" fill="#FA9269"/>
<path d="M403.403 502.37C402.155 500.259 402.727 498.049 404.838 496.801C406.949 495.553 409.138 496.12 410.391 498.242L411.723 500.493C412.976 502.62 412.419 504.82 410.308 506.068C408.197 507.316 405.987 506.743 404.734 504.622L403.403 502.37ZM408.774 499.256C408.01 497.956 406.855 497.571 405.696 498.257C404.536 498.938 404.302 500.145 405.067 501.44L406.351 503.618C407.115 504.918 408.291 505.308 409.45 504.622C410.61 503.941 410.828 502.745 410.059 501.434L408.774 499.256Z" fill="#FA9269"/>
<path d="M418.16 501.44C416.252 502.568 414.115 502.266 413.179 500.675C412.654 499.786 412.747 498.699 413.309 497.815C412.425 497.774 411.634 497.363 411.182 496.598C410.319 495.132 410.979 493.234 412.711 492.21C414.442 491.185 416.413 491.534 417.276 493C417.729 493.764 417.713 494.664 417.328 495.444C418.368 495.376 419.356 495.824 419.882 496.718C420.823 498.304 420.069 500.311 418.16 501.44ZM412.872 495.616C413.283 496.318 414.198 496.463 414.962 496.016C415.711 495.574 416.039 494.695 415.623 493.993C415.212 493.291 414.318 493.151 413.543 493.608C412.752 494.076 412.456 494.919 412.872 495.616ZM414.905 499.703C415.358 500.467 416.392 500.592 417.334 500.036C418.264 499.49 418.654 498.517 418.202 497.753C417.734 496.962 416.678 496.832 415.763 497.373C414.832 497.924 414.437 498.912 414.905 499.703Z" fill="#FA9269"/>
<path d="M433.807 550.387C432.559 548.276 433.131 546.066 435.242 544.818C437.353 543.57 439.543 544.137 440.796 546.258L442.127 548.51C443.38 550.637 442.824 552.836 440.713 554.084C438.601 555.332 436.391 554.76 435.138 552.633L433.807 550.387ZM439.179 547.272C438.414 545.972 437.26 545.587 436.1 546.274C434.941 546.96 434.707 548.161 435.471 549.456L436.755 551.635C437.52 552.935 438.695 553.325 439.855 552.639C441.014 551.952 441.233 550.761 440.463 549.451L439.179 547.272Z" fill="#FA9269"/>
<path d="M449.048 542.509L449.246 542.842C450.92 545.681 450.593 548.297 448.367 549.607C447.145 550.33 445.944 550.418 444.691 550.008L445.2 548.37C446.022 548.656 446.817 548.635 447.54 548.208C448.596 547.584 448.882 546.092 447.987 544.459C447.79 545.348 447.249 546.061 446.37 546.581C444.727 547.548 442.564 547.023 441.617 545.421C440.567 543.638 441.17 541.412 443.006 540.325C445.153 539.056 447.514 539.914 449.048 542.509ZM443.141 544.397C443.703 545.354 444.899 545.629 445.866 545.057C446.807 544.501 447.145 543.326 446.578 542.369C446.022 541.428 444.836 541.131 443.879 541.693C442.912 542.27 442.585 543.456 443.141 544.397Z" fill="#FA9269"/>
<path d="M470.769 598.731L465.08 602.091L464.217 600.624L466.229 599.439L462.698 593.453L460.993 594.462L460.129 592.996L463.489 591.015L467.883 598.461L469.905 597.265L470.769 598.731Z" fill="#FA9269"/>
<path d="M468.028 592.814C466.78 590.703 467.352 588.492 469.463 587.244C471.574 585.996 473.764 586.563 475.017 588.685L476.348 590.937C477.601 593.063 477.045 595.263 474.934 596.511C472.822 597.759 470.612 597.187 469.359 595.06L468.028 592.814ZM473.4 589.694C472.635 588.394 471.481 588.014 470.321 588.695C469.162 589.377 468.928 590.583 469.692 591.878L470.977 594.057C471.741 595.357 472.916 595.747 474.076 595.06C475.235 594.379 475.454 593.183 474.684 591.873L473.4 589.694Z" fill="#FA9269"/>
<path d="M498.469 646.072L492.775 649.431L491.912 647.965L493.924 646.779L490.393 640.794L488.688 641.803L487.825 640.337L491.184 638.355L495.578 645.802L497.601 644.606L498.469 646.072Z" fill="#FA9269"/>
<path d="M504.85 642.313L499.161 645.672L498.298 644.205L500.31 643.02L496.779 637.035L495.074 638.043L494.21 636.577L497.57 634.596L501.964 642.042L503.986 640.846L504.85 642.313Z" fill="#FA9269"/>
</g>
</g>
<defs>
<clipPath id="clip0">
<rect width="1280" height="803" fill="white"/>
</clipPath>
<clipPath id="clip1">
<rect width="443" height="520" fill="white" transform="translate(171 142)"/>
</clipPath>
</defs>
</svg>
